<mxfile host="app.diagrams.net" agent="Mozilla/5.0 (Windows NT 10.0; Win64; x64) AppleWebKit/537.36 (KHTML, like Gecko) Chrome/140.0.0.0 Safari/537.36" version="26.0.13">
  <diagram name="Page-1" id="GAkdIky7B2AmzJ3IErXK">
    <mxGraphModel dx="1050" dy="557" grid="1" gridSize="10" guides="1" tooltips="1" connect="1" arrows="1" fold="1" page="0" pageScale="1" pageWidth="1700" pageHeight="1100" math="0" shadow="0">
      <root>
        <mxCell id="0" />
        <mxCell id="1" parent="0" />
        <mxCell id="mBwvCVkKNd0OoQQ3ES0A-1" value="" style="ellipse;whiteSpace=wrap;html=1;aspect=fixed;" vertex="1" parent="1">
          <mxGeometry x="16" y="250" width="50" height="50" as="geometry" />
        </mxCell>
        <mxCell id="mBwvCVkKNd0OoQQ3ES0A-2" value="Message received from queue" style="text;html=1;align=center;verticalAlign=middle;whiteSpace=wrap;rounded=0;" vertex="1" parent="1">
          <mxGeometry x="10" y="310" width="100" height="30" as="geometry" />
        </mxCell>
        <mxCell id="mBwvCVkKNd0OoQQ3ES0A-3" value="" style="endArrow=classic;html=1;rounded=0;" edge="1" parent="1">
          <mxGeometry width="50" height="50" relative="1" as="geometry">
            <mxPoint x="66" y="280" as="sourcePoint" />
            <mxPoint x="140" y="280" as="targetPoint" />
          </mxGeometry>
        </mxCell>
        <mxCell id="mBwvCVkKNd0OoQQ3ES0A-9" value="" style="endArrow=classic;html=1;rounded=0;" edge="1" parent="1">
          <mxGeometry width="50" height="50" relative="1" as="geometry">
            <mxPoint x="260" y="280" as="sourcePoint" />
            <mxPoint x="300" y="280" as="targetPoint" />
          </mxGeometry>
        </mxCell>
        <mxCell id="mBwvCVkKNd0OoQQ3ES0A-11" value="" style="endArrow=classic;html=1;rounded=0;exitX=1;exitY=0.5;exitDx=0;exitDy=0;" edge="1" parent="1" source="mBwvCVkKNd0OoQQ3ES0A-10">
          <mxGeometry width="50" height="50" relative="1" as="geometry">
            <mxPoint x="381" y="279.5" as="sourcePoint" />
            <mxPoint x="440" y="280" as="targetPoint" />
          </mxGeometry>
        </mxCell>
        <mxCell id="mBwvCVkKNd0OoQQ3ES0A-12" value="Message is valid" style="text;html=1;align=center;verticalAlign=middle;whiteSpace=wrap;rounded=0;" vertex="1" parent="1">
          <mxGeometry x="360" y="240" width="70" height="35" as="geometry" />
        </mxCell>
        <mxCell id="mBwvCVkKNd0OoQQ3ES0A-13" value="Message is invalid" style="text;html=1;align=center;verticalAlign=middle;whiteSpace=wrap;rounded=0;" vertex="1" parent="1">
          <mxGeometry x="340" y="330" width="70" height="35" as="geometry" />
        </mxCell>
        <mxCell id="mBwvCVkKNd0OoQQ3ES0A-15" value="" style="group" vertex="1" connectable="0" parent="1">
          <mxGeometry x="140" y="245" width="120" height="85" as="geometry" />
        </mxCell>
        <mxCell id="mBwvCVkKNd0OoQQ3ES0A-5" value="" style="rounded=1;whiteSpace=wrap;html=1;" vertex="1" parent="mBwvCVkKNd0OoQQ3ES0A-15">
          <mxGeometry width="120" height="85" as="geometry" />
        </mxCell>
        <mxCell id="mBwvCVkKNd0OoQQ3ES0A-6" value="Validate message" style="text;html=1;align=center;verticalAlign=middle;whiteSpace=wrap;rounded=0;" vertex="1" parent="mBwvCVkKNd0OoQQ3ES0A-15">
          <mxGeometry x="10" y="35" width="100" height="30" as="geometry" />
        </mxCell>
        <mxCell id="mBwvCVkKNd0OoQQ3ES0A-8" value="" style="sketch=0;outlineConnect=0;fontColor=#232F3E;gradientColor=none;fillColor=#232F3D;strokeColor=none;dashed=0;verticalLabelPosition=bottom;verticalAlign=top;align=center;html=1;fontSize=12;fontStyle=0;aspect=fixed;pointerEvents=1;shape=mxgraph.aws4.gear;" vertex="1" parent="mBwvCVkKNd0OoQQ3ES0A-15">
          <mxGeometry x="13" y="10" width="20" height="20" as="geometry" />
        </mxCell>
        <mxCell id="mBwvCVkKNd0OoQQ3ES0A-16" value="" style="group" vertex="1" connectable="0" parent="1">
          <mxGeometry x="440" y="244.5" width="120" height="85" as="geometry" />
        </mxCell>
        <mxCell id="mBwvCVkKNd0OoQQ3ES0A-17" value="" style="rounded=1;whiteSpace=wrap;html=1;" vertex="1" parent="mBwvCVkKNd0OoQQ3ES0A-16">
          <mxGeometry width="120" height="85" as="geometry" />
        </mxCell>
        <mxCell id="mBwvCVkKNd0OoQQ3ES0A-18" value="Validate customer" style="text;html=1;align=center;verticalAlign=middle;whiteSpace=wrap;rounded=0;" vertex="1" parent="mBwvCVkKNd0OoQQ3ES0A-16">
          <mxGeometry x="10" y="35" width="100" height="30" as="geometry" />
        </mxCell>
        <mxCell id="mBwvCVkKNd0OoQQ3ES0A-19" value="" style="sketch=0;outlineConnect=0;fontColor=#232F3E;gradientColor=none;fillColor=#232F3D;strokeColor=none;dashed=0;verticalLabelPosition=bottom;verticalAlign=top;align=center;html=1;fontSize=12;fontStyle=0;aspect=fixed;pointerEvents=1;shape=mxgraph.aws4.gear;" vertex="1" parent="mBwvCVkKNd0OoQQ3ES0A-16">
          <mxGeometry x="13" y="10" width="20" height="20" as="geometry" />
        </mxCell>
        <mxCell id="mBwvCVkKNd0OoQQ3ES0A-20" value="" style="endArrow=classic;html=1;rounded=0;exitX=0.5;exitY=1;exitDx=0;exitDy=0;" edge="1" parent="1" source="mBwvCVkKNd0OoQQ3ES0A-10">
          <mxGeometry width="50" height="50" relative="1" as="geometry">
            <mxPoint x="510" y="320" as="sourcePoint" />
            <mxPoint x="420" y="410" as="targetPoint" />
            <Array as="points">
              <mxPoint x="330" y="410" />
            </Array>
          </mxGeometry>
        </mxCell>
        <mxCell id="mBwvCVkKNd0OoQQ3ES0A-21" value="" style="ellipse;html=1;shape=endState;fillColor=#000000;strokeColor=#ff0000;" vertex="1" parent="1">
          <mxGeometry x="420" y="397" width="30" height="30" as="geometry" />
        </mxCell>
        <mxCell id="mBwvCVkKNd0OoQQ3ES0A-25" value="" style="group" vertex="1" connectable="0" parent="1">
          <mxGeometry x="300" y="250" width="60" height="60" as="geometry" />
        </mxCell>
        <mxCell id="mBwvCVkKNd0OoQQ3ES0A-10" value="" style="rhombus;whiteSpace=wrap;html=1;" vertex="1" parent="mBwvCVkKNd0OoQQ3ES0A-25">
          <mxGeometry width="60" height="60" as="geometry" />
        </mxCell>
        <mxCell id="mBwvCVkKNd0OoQQ3ES0A-23" value="" style="sketch=0;outlineConnect=0;fontColor=#232F3E;gradientColor=none;fillColor=#232F3D;strokeColor=none;dashed=0;verticalLabelPosition=bottom;verticalAlign=top;align=center;html=1;fontSize=12;fontStyle=0;aspect=fixed;pointerEvents=1;shape=mxgraph.aws4.question;" vertex="1" parent="mBwvCVkKNd0OoQQ3ES0A-25">
          <mxGeometry x="22.120000000000005" y="15" width="15.77" height="30" as="geometry" />
        </mxCell>
        <mxCell id="mBwvCVkKNd0OoQQ3ES0A-26" value="" style="group" vertex="1" connectable="0" parent="1">
          <mxGeometry x="600" y="250" width="60" height="60" as="geometry" />
        </mxCell>
        <mxCell id="mBwvCVkKNd0OoQQ3ES0A-27" value="" style="rhombus;whiteSpace=wrap;html=1;" vertex="1" parent="mBwvCVkKNd0OoQQ3ES0A-26">
          <mxGeometry width="60" height="60" as="geometry" />
        </mxCell>
        <mxCell id="mBwvCVkKNd0OoQQ3ES0A-28" value="" style="sketch=0;outlineConnect=0;fontColor=#232F3E;gradientColor=none;fillColor=#232F3D;strokeColor=none;dashed=0;verticalLabelPosition=bottom;verticalAlign=top;align=center;html=1;fontSize=12;fontStyle=0;aspect=fixed;pointerEvents=1;shape=mxgraph.aws4.question;" vertex="1" parent="mBwvCVkKNd0OoQQ3ES0A-26">
          <mxGeometry x="22.120000000000005" y="15" width="15.77" height="30" as="geometry" />
        </mxCell>
        <mxCell id="mBwvCVkKNd0OoQQ3ES0A-29" value="" style="endArrow=classic;html=1;rounded=0;" edge="1" parent="1">
          <mxGeometry width="50" height="50" relative="1" as="geometry">
            <mxPoint x="560" y="279.5" as="sourcePoint" />
            <mxPoint x="600" y="279.5" as="targetPoint" />
          </mxGeometry>
        </mxCell>
        <mxCell id="mBwvCVkKNd0OoQQ3ES0A-30" value="" style="endArrow=classic;html=1;rounded=0;exitX=0.5;exitY=1;exitDx=0;exitDy=0;" edge="1" parent="1">
          <mxGeometry width="50" height="50" relative="1" as="geometry">
            <mxPoint x="630" y="310" as="sourcePoint" />
            <mxPoint x="450" y="410" as="targetPoint" />
            <Array as="points">
              <mxPoint x="630" y="410" />
            </Array>
          </mxGeometry>
        </mxCell>
        <mxCell id="mBwvCVkKNd0OoQQ3ES0A-31" value="" style="endArrow=classic;html=1;rounded=0;exitX=1;exitY=0.5;exitDx=0;exitDy=0;" edge="1" parent="1">
          <mxGeometry width="50" height="50" relative="1" as="geometry">
            <mxPoint x="660" y="279.5" as="sourcePoint" />
            <mxPoint x="740" y="279.5" as="targetPoint" />
          </mxGeometry>
        </mxCell>
        <mxCell id="mBwvCVkKNd0OoQQ3ES0A-32" value="Customer is valid" style="text;html=1;align=center;verticalAlign=middle;whiteSpace=wrap;rounded=0;" vertex="1" parent="1">
          <mxGeometry x="660" y="244.5" width="70" height="35" as="geometry" />
        </mxCell>
        <mxCell id="mBwvCVkKNd0OoQQ3ES0A-33" value="" style="group" vertex="1" connectable="0" parent="1">
          <mxGeometry x="740" y="250" width="60" height="60" as="geometry" />
        </mxCell>
        <mxCell id="mBwvCVkKNd0OoQQ3ES0A-34" value="" style="rhombus;whiteSpace=wrap;html=1;" vertex="1" parent="mBwvCVkKNd0OoQQ3ES0A-33">
          <mxGeometry width="60" height="60" as="geometry" />
        </mxCell>
        <mxCell id="mBwvCVkKNd0OoQQ3ES0A-35" value="" style="sketch=0;outlineConnect=0;fontColor=#232F3E;gradientColor=none;fillColor=#232F3D;strokeColor=none;dashed=0;verticalLabelPosition=bottom;verticalAlign=top;align=center;html=1;fontSize=12;fontStyle=0;aspect=fixed;pointerEvents=1;shape=mxgraph.aws4.question;" vertex="1" parent="mBwvCVkKNd0OoQQ3ES0A-33">
          <mxGeometry x="22.120000000000005" y="15" width="15.77" height="30" as="geometry" />
        </mxCell>
        <mxCell id="mBwvCVkKNd0OoQQ3ES0A-36" value="Customer check failed" style="text;html=1;align=center;verticalAlign=middle;whiteSpace=wrap;rounded=0;" vertex="1" parent="1">
          <mxGeometry x="640" y="331" width="70" height="35" as="geometry" />
        </mxCell>
        <mxCell id="mBwvCVkKNd0OoQQ3ES0A-37" value="" style="endArrow=classic;html=1;rounded=0;exitX=1;exitY=0.5;exitDx=0;exitDy=0;" edge="1" parent="1" source="mBwvCVkKNd0OoQQ3ES0A-34">
          <mxGeometry width="50" height="50" relative="1" as="geometry">
            <mxPoint x="510" y="320" as="sourcePoint" />
            <mxPoint x="880" y="280" as="targetPoint" />
          </mxGeometry>
        </mxCell>
        <mxCell id="mBwvCVkKNd0OoQQ3ES0A-38" value="File is encrypted" style="text;html=1;align=center;verticalAlign=middle;whiteSpace=wrap;rounded=0;" vertex="1" parent="1">
          <mxGeometry x="800" y="294.5" width="70" height="35" as="geometry" />
        </mxCell>
        <mxCell id="mBwvCVkKNd0OoQQ3ES0A-39" value="" style="group" vertex="1" connectable="0" parent="1">
          <mxGeometry x="880" y="245" width="120" height="85" as="geometry" />
        </mxCell>
        <mxCell id="mBwvCVkKNd0OoQQ3ES0A-40" value="" style="rounded=1;whiteSpace=wrap;html=1;" vertex="1" parent="mBwvCVkKNd0OoQQ3ES0A-39">
          <mxGeometry width="120" height="85" as="geometry" />
        </mxCell>
        <mxCell id="mBwvCVkKNd0OoQQ3ES0A-41" value="Send file to Security service for decryption" style="text;html=1;align=center;verticalAlign=middle;whiteSpace=wrap;rounded=0;" vertex="1" parent="mBwvCVkKNd0OoQQ3ES0A-39">
          <mxGeometry x="11" y="38" width="100" height="30" as="geometry" />
        </mxCell>
        <mxCell id="mBwvCVkKNd0OoQQ3ES0A-42" value="" style="sketch=0;outlineConnect=0;fontColor=#232F3E;gradientColor=none;fillColor=#232F3D;strokeColor=none;dashed=0;verticalLabelPosition=bottom;verticalAlign=top;align=center;html=1;fontSize=12;fontStyle=0;aspect=fixed;pointerEvents=1;shape=mxgraph.aws4.gear;" vertex="1" parent="mBwvCVkKNd0OoQQ3ES0A-39">
          <mxGeometry x="13" y="10" width="20" height="20" as="geometry" />
        </mxCell>
        <mxCell id="mBwvCVkKNd0OoQQ3ES0A-43" value="" style="group" vertex="1" connectable="0" parent="1">
          <mxGeometry x="1040" y="246" width="120" height="85" as="geometry" />
        </mxCell>
        <mxCell id="mBwvCVkKNd0OoQQ3ES0A-50" value="" style="group" vertex="1" connectable="0" parent="mBwvCVkKNd0OoQQ3ES0A-43">
          <mxGeometry width="120" height="85" as="geometry" />
        </mxCell>
        <mxCell id="mBwvCVkKNd0OoQQ3ES0A-44" value="" style="rounded=1;whiteSpace=wrap;html=1;" vertex="1" parent="mBwvCVkKNd0OoQQ3ES0A-50">
          <mxGeometry width="120" height="85" as="geometry" />
        </mxCell>
        <mxCell id="mBwvCVkKNd0OoQQ3ES0A-45" value="Receive response from Security service" style="text;html=1;align=center;verticalAlign=middle;whiteSpace=wrap;rounded=0;" vertex="1" parent="mBwvCVkKNd0OoQQ3ES0A-50">
          <mxGeometry x="11" y="38" width="100" height="30" as="geometry" />
        </mxCell>
        <mxCell id="mBwvCVkKNd0OoQQ3ES0A-48" value="" style="shape=message;html=1;html=1;outlineConnect=0;labelPosition=center;verticalLabelPosition=bottom;align=center;verticalAlign=top;" vertex="1" parent="mBwvCVkKNd0OoQQ3ES0A-50">
          <mxGeometry x="11" y="4" width="30" height="20" as="geometry" />
        </mxCell>
        <mxCell id="mBwvCVkKNd0OoQQ3ES0A-51" value="" style="endArrow=classic;html=1;rounded=0;entryX=-0.01;entryY=0.402;entryDx=0;entryDy=0;entryPerimeter=0;" edge="1" parent="1" target="mBwvCVkKNd0OoQQ3ES0A-44">
          <mxGeometry width="50" height="50" relative="1" as="geometry">
            <mxPoint x="1000" y="280" as="sourcePoint" />
            <mxPoint x="1020" y="260" as="targetPoint" />
          </mxGeometry>
        </mxCell>
        <mxCell id="mBwvCVkKNd0OoQQ3ES0A-52" value="" style="group" vertex="1" connectable="0" parent="1">
          <mxGeometry x="1200" y="250" width="60" height="60" as="geometry" />
        </mxCell>
        <mxCell id="mBwvCVkKNd0OoQQ3ES0A-53" value="" style="rhombus;whiteSpace=wrap;html=1;" vertex="1" parent="mBwvCVkKNd0OoQQ3ES0A-52">
          <mxGeometry width="60" height="60" as="geometry" />
        </mxCell>
        <mxCell id="mBwvCVkKNd0OoQQ3ES0A-54" value="" style="sketch=0;outlineConnect=0;fontColor=#232F3E;gradientColor=none;fillColor=#232F3D;strokeColor=none;dashed=0;verticalLabelPosition=bottom;verticalAlign=top;align=center;html=1;fontSize=12;fontStyle=0;aspect=fixed;pointerEvents=1;shape=mxgraph.aws4.question;" vertex="1" parent="mBwvCVkKNd0OoQQ3ES0A-52">
          <mxGeometry x="22.120000000000005" y="15" width="15.77" height="30" as="geometry" />
        </mxCell>
        <mxCell id="mBwvCVkKNd0OoQQ3ES0A-55" value="" style="endArrow=classic;html=1;rounded=0;" edge="1" parent="1">
          <mxGeometry width="50" height="50" relative="1" as="geometry">
            <mxPoint x="1160" y="280" as="sourcePoint" />
            <mxPoint x="1200" y="280" as="targetPoint" />
          </mxGeometry>
        </mxCell>
        <mxCell id="mBwvCVkKNd0OoQQ3ES0A-56" value="" style="group" vertex="1" connectable="0" parent="1">
          <mxGeometry x="1331" y="246" width="120" height="85" as="geometry" />
        </mxCell>
        <mxCell id="mBwvCVkKNd0OoQQ3ES0A-57" value="" style="rounded=1;whiteSpace=wrap;html=1;" vertex="1" parent="mBwvCVkKNd0OoQQ3ES0A-56">
          <mxGeometry width="120" height="85" as="geometry" />
        </mxCell>
        <mxCell id="mBwvCVkKNd0OoQQ3ES0A-58" value="Archive decrypted file" style="text;html=1;align=center;verticalAlign=middle;whiteSpace=wrap;rounded=0;" vertex="1" parent="mBwvCVkKNd0OoQQ3ES0A-56">
          <mxGeometry x="11" y="38" width="100" height="30" as="geometry" />
        </mxCell>
        <mxCell id="mBwvCVkKNd0OoQQ3ES0A-59" value="" style="sketch=0;outlineConnect=0;fontColor=#232F3E;gradientColor=none;fillColor=#232F3D;strokeColor=none;dashed=0;verticalLabelPosition=bottom;verticalAlign=top;align=center;html=1;fontSize=12;fontStyle=0;aspect=fixed;pointerEvents=1;shape=mxgraph.aws4.gear;" vertex="1" parent="mBwvCVkKNd0OoQQ3ES0A-56">
          <mxGeometry x="13" y="10" width="20" height="20" as="geometry" />
        </mxCell>
        <mxCell id="mBwvCVkKNd0OoQQ3ES0A-60" value="File decrypted successfully" style="text;html=1;align=center;verticalAlign=middle;whiteSpace=wrap;rounded=0;" vertex="1" parent="1">
          <mxGeometry x="1255" y="232" width="70" height="35" as="geometry" />
        </mxCell>
        <mxCell id="mBwvCVkKNd0OoQQ3ES0A-62" value="File decryption failed" style="text;html=1;align=center;verticalAlign=middle;whiteSpace=wrap;rounded=0;" vertex="1" parent="1">
          <mxGeometry x="1239" y="352" width="70" height="35" as="geometry" />
        </mxCell>
        <mxCell id="mBwvCVkKNd0OoQQ3ES0A-63" value="" style="group" vertex="1" connectable="0" parent="1">
          <mxGeometry x="1490" y="245" width="120" height="85" as="geometry" />
        </mxCell>
        <mxCell id="mBwvCVkKNd0OoQQ3ES0A-64" value="" style="rounded=1;whiteSpace=wrap;html=1;" vertex="1" parent="mBwvCVkKNd0OoQQ3ES0A-63">
          <mxGeometry width="120" height="85" as="geometry" />
        </mxCell>
        <mxCell id="mBwvCVkKNd0OoQQ3ES0A-65" value="Send file to Syntax validation service" style="text;html=1;align=center;verticalAlign=middle;whiteSpace=wrap;rounded=0;" vertex="1" parent="mBwvCVkKNd0OoQQ3ES0A-63">
          <mxGeometry x="11" y="38" width="100" height="30" as="geometry" />
        </mxCell>
        <mxCell id="mBwvCVkKNd0OoQQ3ES0A-66" value="" style="sketch=0;outlineConnect=0;fontColor=#232F3E;gradientColor=none;fillColor=#232F3D;strokeColor=none;dashed=0;verticalLabelPosition=bottom;verticalAlign=top;align=center;html=1;fontSize=12;fontStyle=0;aspect=fixed;pointerEvents=1;shape=mxgraph.aws4.gear;" vertex="1" parent="mBwvCVkKNd0OoQQ3ES0A-63">
          <mxGeometry x="13" y="10" width="20" height="20" as="geometry" />
        </mxCell>
        <mxCell id="mBwvCVkKNd0OoQQ3ES0A-67" value="" style="endArrow=classic;html=1;rounded=0;" edge="1" parent="1">
          <mxGeometry width="50" height="50" relative="1" as="geometry">
            <mxPoint x="1260" y="280" as="sourcePoint" />
            <mxPoint x="1331" y="280" as="targetPoint" />
          </mxGeometry>
        </mxCell>
        <mxCell id="mBwvCVkKNd0OoQQ3ES0A-68" value="" style="endArrow=classic;html=1;rounded=0;" edge="1" parent="1">
          <mxGeometry width="50" height="50" relative="1" as="geometry">
            <mxPoint x="1450" y="280" as="sourcePoint" />
            <mxPoint x="1490" y="280" as="targetPoint" />
          </mxGeometry>
        </mxCell>
        <mxCell id="mBwvCVkKNd0OoQQ3ES0A-69" value="" style="group" vertex="1" connectable="0" parent="1">
          <mxGeometry x="1660" y="245" width="120" height="85" as="geometry" />
        </mxCell>
        <mxCell id="mBwvCVkKNd0OoQQ3ES0A-70" value="" style="group" vertex="1" connectable="0" parent="mBwvCVkKNd0OoQQ3ES0A-69">
          <mxGeometry width="120" height="85" as="geometry" />
        </mxCell>
        <mxCell id="mBwvCVkKNd0OoQQ3ES0A-71" value="" style="rounded=1;whiteSpace=wrap;html=1;" vertex="1" parent="mBwvCVkKNd0OoQQ3ES0A-70">
          <mxGeometry width="120" height="85" as="geometry" />
        </mxCell>
        <mxCell id="mBwvCVkKNd0OoQQ3ES0A-72" value="Receive response from Syntax validation service" style="text;html=1;align=center;verticalAlign=middle;whiteSpace=wrap;rounded=0;" vertex="1" parent="mBwvCVkKNd0OoQQ3ES0A-70">
          <mxGeometry x="11" y="38" width="100" height="30" as="geometry" />
        </mxCell>
        <mxCell id="mBwvCVkKNd0OoQQ3ES0A-73" value="" style="shape=message;html=1;html=1;outlineConnect=0;labelPosition=center;verticalLabelPosition=bottom;align=center;verticalAlign=top;" vertex="1" parent="mBwvCVkKNd0OoQQ3ES0A-70">
          <mxGeometry x="11" y="4" width="30" height="20" as="geometry" />
        </mxCell>
        <mxCell id="mBwvCVkKNd0OoQQ3ES0A-74" value="" style="endArrow=classic;html=1;rounded=0;" edge="1" parent="1">
          <mxGeometry width="50" height="50" relative="1" as="geometry">
            <mxPoint x="1610" y="280" as="sourcePoint" />
            <mxPoint x="1660" y="280" as="targetPoint" />
          </mxGeometry>
        </mxCell>
        <mxCell id="mBwvCVkKNd0OoQQ3ES0A-75" value="" style="group" vertex="1" connectable="0" parent="1">
          <mxGeometry x="1810" y="250" width="60" height="60" as="geometry" />
        </mxCell>
        <mxCell id="mBwvCVkKNd0OoQQ3ES0A-76" value="" style="rhombus;whiteSpace=wrap;html=1;" vertex="1" parent="mBwvCVkKNd0OoQQ3ES0A-75">
          <mxGeometry width="60" height="60" as="geometry" />
        </mxCell>
        <mxCell id="mBwvCVkKNd0OoQQ3ES0A-77" value="" style="sketch=0;outlineConnect=0;fontColor=#232F3E;gradientColor=none;fillColor=#232F3D;strokeColor=none;dashed=0;verticalLabelPosition=bottom;verticalAlign=top;align=center;html=1;fontSize=12;fontStyle=0;aspect=fixed;pointerEvents=1;shape=mxgraph.aws4.question;" vertex="1" parent="mBwvCVkKNd0OoQQ3ES0A-75">
          <mxGeometry x="22.120000000000005" y="15" width="15.77" height="30" as="geometry" />
        </mxCell>
        <mxCell id="mBwvCVkKNd0OoQQ3ES0A-78" value="" style="endArrow=classic;html=1;rounded=0;exitX=1.01;exitY=0.433;exitDx=0;exitDy=0;exitPerimeter=0;" edge="1" parent="1" source="mBwvCVkKNd0OoQQ3ES0A-71">
          <mxGeometry width="50" height="50" relative="1" as="geometry">
            <mxPoint x="1620" y="290" as="sourcePoint" />
            <mxPoint x="1810" y="282" as="targetPoint" />
          </mxGeometry>
        </mxCell>
        <mxCell id="mBwvCVkKNd0OoQQ3ES0A-80" value="Invalid Syntax" style="text;html=1;align=center;verticalAlign=middle;whiteSpace=wrap;rounded=0;" vertex="1" parent="1">
          <mxGeometry x="1840" y="427" width="70" height="35" as="geometry" />
        </mxCell>
        <mxCell id="mBwvCVkKNd0OoQQ3ES0A-81" value="" style="group" vertex="1" connectable="0" parent="1">
          <mxGeometry x="2055" y="490" width="110" height="70" as="geometry" />
        </mxCell>
        <mxCell id="mBwvCVkKNd0OoQQ3ES0A-82" value="" style="rounded=1;whiteSpace=wrap;html=1;" vertex="1" parent="mBwvCVkKNd0OoQQ3ES0A-81">
          <mxGeometry y="-3" width="110" height="70" as="geometry" />
        </mxCell>
        <mxCell id="mBwvCVkKNd0OoQQ3ES0A-83" value="Send FSN" style="text;html=1;align=center;verticalAlign=middle;whiteSpace=wrap;rounded=0;" vertex="1" parent="mBwvCVkKNd0OoQQ3ES0A-81">
          <mxGeometry x="10.083333333333332" y="23.294117647058822" width="91.66666666666666" height="24.705882352941174" as="geometry" />
        </mxCell>
        <mxCell id="mBwvCVkKNd0OoQQ3ES0A-84" value="" style="sketch=0;outlineConnect=0;fontColor=#232F3E;gradientColor=none;fillColor=#232F3D;strokeColor=none;dashed=0;verticalLabelPosition=bottom;verticalAlign=top;align=center;html=1;fontSize=12;fontStyle=0;aspect=fixed;pointerEvents=1;shape=mxgraph.aws4.gear;" vertex="1" parent="mBwvCVkKNd0OoQQ3ES0A-81">
          <mxGeometry x="11.916666666666666" y="8.235294117647058" width="16.470588235294116" height="16.470588235294116" as="geometry" />
        </mxCell>
        <mxCell id="mBwvCVkKNd0OoQQ3ES0A-85" value="" style="endArrow=none;html=1;rounded=0;" edge="1" parent="1">
          <mxGeometry width="50" height="50" relative="1" as="geometry">
            <mxPoint x="1841" y="520" as="sourcePoint" />
            <mxPoint x="1841" y="310" as="targetPoint" />
          </mxGeometry>
        </mxCell>
        <mxCell id="mBwvCVkKNd0OoQQ3ES0A-86" value="" style="endArrow=classic;html=1;rounded=0;entryX=0;entryY=0.5;entryDx=0;entryDy=0;" edge="1" parent="1" target="mBwvCVkKNd0OoQQ3ES0A-82">
          <mxGeometry width="50" height="50" relative="1" as="geometry">
            <mxPoint x="630" y="410" as="sourcePoint" />
            <mxPoint x="2050" y="520" as="targetPoint" />
            <Array as="points">
              <mxPoint x="630" y="520" />
            </Array>
          </mxGeometry>
        </mxCell>
        <mxCell id="mBwvCVkKNd0OoQQ3ES0A-87" value="Invalid security preference" style="text;html=1;align=center;verticalAlign=middle;whiteSpace=wrap;rounded=0;" vertex="1" parent="1">
          <mxGeometry x="640" y="470" width="70" height="35" as="geometry" />
        </mxCell>
        <mxCell id="mBwvCVkKNd0OoQQ3ES0A-88" value="" style="group" vertex="1" connectable="0" parent="1">
          <mxGeometry x="1909" y="244" width="120" height="85" as="geometry" />
        </mxCell>
        <mxCell id="mBwvCVkKNd0OoQQ3ES0A-89" value="" style="rounded=1;whiteSpace=wrap;html=1;" vertex="1" parent="mBwvCVkKNd0OoQQ3ES0A-88">
          <mxGeometry width="120" height="85" as="geometry" />
        </mxCell>
        <mxCell id="mBwvCVkKNd0OoQQ3ES0A-90" value="Check for duplicate" style="text;html=1;align=center;verticalAlign=middle;whiteSpace=wrap;rounded=0;" vertex="1" parent="mBwvCVkKNd0OoQQ3ES0A-88">
          <mxGeometry x="11" y="38" width="100" height="30" as="geometry" />
        </mxCell>
        <mxCell id="mBwvCVkKNd0OoQQ3ES0A-91" value="" style="sketch=0;outlineConnect=0;fontColor=#232F3E;gradientColor=none;fillColor=#232F3D;strokeColor=none;dashed=0;verticalLabelPosition=bottom;verticalAlign=top;align=center;html=1;fontSize=12;fontStyle=0;aspect=fixed;pointerEvents=1;shape=mxgraph.aws4.gear;" vertex="1" parent="mBwvCVkKNd0OoQQ3ES0A-88">
          <mxGeometry x="13" y="10" width="20" height="20" as="geometry" />
        </mxCell>
        <mxCell id="mBwvCVkKNd0OoQQ3ES0A-92" value="" style="endArrow=classic;html=1;rounded=0;exitX=1;exitY=0.5;exitDx=0;exitDy=0;entryX=0.002;entryY=0.416;entryDx=0;entryDy=0;entryPerimeter=0;" edge="1" parent="1" source="mBwvCVkKNd0OoQQ3ES0A-76" target="mBwvCVkKNd0OoQQ3ES0A-89">
          <mxGeometry width="50" height="50" relative="1" as="geometry">
            <mxPoint x="1791" y="292" as="sourcePoint" />
            <mxPoint x="1900" y="280" as="targetPoint" />
          </mxGeometry>
        </mxCell>
        <mxCell id="mBwvCVkKNd0OoQQ3ES0A-93" value="Valid Syntax" style="text;html=1;align=center;verticalAlign=middle;whiteSpace=wrap;rounded=0;" vertex="1" parent="1">
          <mxGeometry x="1859" y="227" width="50" height="40" as="geometry" />
        </mxCell>
        <mxCell id="mBwvCVkKNd0OoQQ3ES0A-94" value="" style="group" vertex="1" connectable="0" parent="1">
          <mxGeometry x="2080" y="250" width="60" height="60" as="geometry" />
        </mxCell>
        <mxCell id="mBwvCVkKNd0OoQQ3ES0A-95" value="" style="rhombus;whiteSpace=wrap;html=1;" vertex="1" parent="mBwvCVkKNd0OoQQ3ES0A-94">
          <mxGeometry width="60" height="60" as="geometry" />
        </mxCell>
        <mxCell id="mBwvCVkKNd0OoQQ3ES0A-96" value="" style="sketch=0;outlineConnect=0;fontColor=#232F3E;gradientColor=none;fillColor=#232F3D;strokeColor=none;dashed=0;verticalLabelPosition=bottom;verticalAlign=top;align=center;html=1;fontSize=12;fontStyle=0;aspect=fixed;pointerEvents=1;shape=mxgraph.aws4.question;" vertex="1" parent="mBwvCVkKNd0OoQQ3ES0A-94">
          <mxGeometry x="22.120000000000005" y="15" width="15.77" height="30" as="geometry" />
        </mxCell>
        <mxCell id="mBwvCVkKNd0OoQQ3ES0A-97" value="File is not duplicated" style="text;html=1;align=center;verticalAlign=middle;whiteSpace=wrap;rounded=0;" vertex="1" parent="1">
          <mxGeometry x="2140" y="229.5" width="50" height="40" as="geometry" />
        </mxCell>
        <mxCell id="mBwvCVkKNd0OoQQ3ES0A-98" value="" style="endArrow=classic;html=1;rounded=0;exitX=1.002;exitY=0.426;exitDx=0;exitDy=0;exitPerimeter=0;" edge="1" parent="1" source="mBwvCVkKNd0OoQQ3ES0A-89">
          <mxGeometry width="50" height="50" relative="1" as="geometry">
            <mxPoint x="1880" y="290" as="sourcePoint" />
            <mxPoint x="2080" y="280" as="targetPoint" />
          </mxGeometry>
        </mxCell>
        <mxCell id="mBwvCVkKNd0OoQQ3ES0A-99" value="" style="endArrow=classic;html=1;rounded=0;exitX=0.5;exitY=1;exitDx=0;exitDy=0;entryX=0.5;entryY=0;entryDx=0;entryDy=0;" edge="1" parent="1" source="mBwvCVkKNd0OoQQ3ES0A-95" target="mBwvCVkKNd0OoQQ3ES0A-82">
          <mxGeometry width="50" height="50" relative="1" as="geometry">
            <mxPoint x="1680" y="350" as="sourcePoint" />
            <mxPoint x="1730" y="300" as="targetPoint" />
          </mxGeometry>
        </mxCell>
        <mxCell id="mBwvCVkKNd0OoQQ3ES0A-100" value="File is duplicated" style="text;html=1;align=center;verticalAlign=middle;whiteSpace=wrap;rounded=0;" vertex="1" parent="1">
          <mxGeometry x="2110" y="427" width="70" height="35" as="geometry" />
        </mxCell>
        <mxCell id="mBwvCVkKNd0OoQQ3ES0A-101" value="" style="endArrow=none;html=1;rounded=0;" edge="1" parent="1">
          <mxGeometry width="50" height="50" relative="1" as="geometry">
            <mxPoint x="1230" y="310" as="sourcePoint" />
            <mxPoint x="2110" y="400" as="targetPoint" />
            <Array as="points">
              <mxPoint x="1230" y="400" />
            </Array>
          </mxGeometry>
        </mxCell>
        <mxCell id="mBwvCVkKNd0OoQQ3ES0A-102" value="" style="group" vertex="1" connectable="0" parent="1">
          <mxGeometry x="2200" y="247" width="120" height="85" as="geometry" />
        </mxCell>
        <mxCell id="mBwvCVkKNd0OoQQ3ES0A-103" value="" style="rounded=1;whiteSpace=wrap;html=1;" vertex="1" parent="mBwvCVkKNd0OoQQ3ES0A-102">
          <mxGeometry width="120" height="85" as="geometry" />
        </mxCell>
        <mxCell id="mBwvCVkKNd0OoQQ3ES0A-104" value="Send file for Debulking" style="text;html=1;align=center;verticalAlign=middle;whiteSpace=wrap;rounded=0;" vertex="1" parent="mBwvCVkKNd0OoQQ3ES0A-102">
          <mxGeometry x="11" y="38" width="100" height="30" as="geometry" />
        </mxCell>
        <mxCell id="mBwvCVkKNd0OoQQ3ES0A-105" value="" style="sketch=0;outlineConnect=0;fontColor=#232F3E;gradientColor=none;fillColor=#232F3D;strokeColor=none;dashed=0;verticalLabelPosition=bottom;verticalAlign=top;align=center;html=1;fontSize=12;fontStyle=0;aspect=fixed;pointerEvents=1;shape=mxgraph.aws4.gear;" vertex="1" parent="mBwvCVkKNd0OoQQ3ES0A-102">
          <mxGeometry x="13" y="10" width="20" height="20" as="geometry" />
        </mxCell>
        <mxCell id="mBwvCVkKNd0OoQQ3ES0A-106" value="" style="endArrow=classic;html=1;rounded=0;exitX=1;exitY=0.5;exitDx=0;exitDy=0;entryX=-0.003;entryY=0.391;entryDx=0;entryDy=0;entryPerimeter=0;" edge="1" parent="1" source="mBwvCVkKNd0OoQQ3ES0A-95" target="mBwvCVkKNd0OoQQ3ES0A-103">
          <mxGeometry width="50" height="50" relative="1" as="geometry">
            <mxPoint x="2039" y="290" as="sourcePoint" />
            <mxPoint x="2090" y="290" as="targetPoint" />
          </mxGeometry>
        </mxCell>
        <mxCell id="mBwvCVkKNd0OoQQ3ES0A-108" value="" style="group" vertex="1" connectable="0" parent="1">
          <mxGeometry x="2370" y="247" width="120" height="85" as="geometry" />
        </mxCell>
        <mxCell id="mBwvCVkKNd0OoQQ3ES0A-109" value="" style="group" vertex="1" connectable="0" parent="mBwvCVkKNd0OoQQ3ES0A-108">
          <mxGeometry width="120" height="85" as="geometry" />
        </mxCell>
        <mxCell id="mBwvCVkKNd0OoQQ3ES0A-110" value="" style="rounded=1;whiteSpace=wrap;html=1;" vertex="1" parent="mBwvCVkKNd0OoQQ3ES0A-109">
          <mxGeometry width="120" height="85" as="geometry" />
        </mxCell>
        <mxCell id="mBwvCVkKNd0OoQQ3ES0A-111" value="Receive response from Debulking" style="text;html=1;align=center;verticalAlign=middle;whiteSpace=wrap;rounded=0;" vertex="1" parent="mBwvCVkKNd0OoQQ3ES0A-109">
          <mxGeometry x="11" y="38" width="100" height="30" as="geometry" />
        </mxCell>
        <mxCell id="mBwvCVkKNd0OoQQ3ES0A-112" value="" style="shape=message;html=1;html=1;outlineConnect=0;labelPosition=center;verticalLabelPosition=bottom;align=center;verticalAlign=top;" vertex="1" parent="mBwvCVkKNd0OoQQ3ES0A-109">
          <mxGeometry x="11" y="4" width="30" height="20" as="geometry" />
        </mxCell>
        <mxCell id="mBwvCVkKNd0OoQQ3ES0A-113" value="" style="endArrow=classic;html=1;rounded=0;entryX=0.007;entryY=0.391;entryDx=0;entryDy=0;entryPerimeter=0;" edge="1" parent="1" target="mBwvCVkKNd0OoQQ3ES0A-110">
          <mxGeometry width="50" height="50" relative="1" as="geometry">
            <mxPoint x="2320" y="280" as="sourcePoint" />
            <mxPoint x="2210" y="290" as="targetPoint" />
          </mxGeometry>
        </mxCell>
        <mxCell id="mBwvCVkKNd0OoQQ3ES0A-114" value="" style="group" vertex="1" connectable="0" parent="1">
          <mxGeometry x="2530" y="250" width="60" height="60" as="geometry" />
        </mxCell>
        <mxCell id="mBwvCVkKNd0OoQQ3ES0A-115" value="" style="rhombus;whiteSpace=wrap;html=1;" vertex="1" parent="mBwvCVkKNd0OoQQ3ES0A-114">
          <mxGeometry width="60" height="60" as="geometry" />
        </mxCell>
        <mxCell id="mBwvCVkKNd0OoQQ3ES0A-116" value="" style="sketch=0;outlineConnect=0;fontColor=#232F3E;gradientColor=none;fillColor=#232F3D;strokeColor=none;dashed=0;verticalLabelPosition=bottom;verticalAlign=top;align=center;html=1;fontSize=12;fontStyle=0;aspect=fixed;pointerEvents=1;shape=mxgraph.aws4.question;" vertex="1" parent="mBwvCVkKNd0OoQQ3ES0A-114">
          <mxGeometry x="22.120000000000005" y="15" width="15.77" height="30" as="geometry" />
        </mxCell>
        <mxCell id="mBwvCVkKNd0OoQQ3ES0A-117" value="" style="endArrow=classic;html=1;rounded=0;entryX=0;entryY=0.5;entryDx=0;entryDy=0;" edge="1" parent="1" target="mBwvCVkKNd0OoQQ3ES0A-115">
          <mxGeometry width="50" height="50" relative="1" as="geometry">
            <mxPoint x="2490" y="280" as="sourcePoint" />
            <mxPoint x="2381" y="290" as="targetPoint" />
          </mxGeometry>
        </mxCell>
        <mxCell id="mBwvCVkKNd0OoQQ3ES0A-118" value="" style="endArrow=none;html=1;rounded=0;" edge="1" parent="1">
          <mxGeometry width="50" height="50" relative="1" as="geometry">
            <mxPoint x="2110" y="400" as="sourcePoint" />
            <mxPoint x="2560" y="310" as="targetPoint" />
            <Array as="points">
              <mxPoint x="2560" y="400" />
            </Array>
          </mxGeometry>
        </mxCell>
        <mxCell id="mBwvCVkKNd0OoQQ3ES0A-119" value="FSN raised during Debulking" style="text;html=1;align=center;verticalAlign=middle;whiteSpace=wrap;rounded=0;" vertex="1" parent="1">
          <mxGeometry x="2570" y="327.5" width="70" height="32.5" as="geometry" />
        </mxCell>
        <mxCell id="mBwvCVkKNd0OoQQ3ES0A-120" value="" style="group" vertex="1" connectable="0" parent="1">
          <mxGeometry x="2680" y="250" width="120" height="85" as="geometry" />
        </mxCell>
        <mxCell id="mBwvCVkKNd0OoQQ3ES0A-121" value="" style="rounded=1;whiteSpace=wrap;html=1;" vertex="1" parent="mBwvCVkKNd0OoQQ3ES0A-120">
          <mxGeometry width="120" height="85" as="geometry" />
        </mxCell>
        <mxCell id="mBwvCVkKNd0OoQQ3ES0A-122" value="Dispatch to Orchestration workflow" style="text;html=1;align=center;verticalAlign=middle;whiteSpace=wrap;rounded=0;" vertex="1" parent="mBwvCVkKNd0OoQQ3ES0A-120">
          <mxGeometry x="11" y="38" width="100" height="30" as="geometry" />
        </mxCell>
        <mxCell id="mBwvCVkKNd0OoQQ3ES0A-123" value="" style="sketch=0;outlineConnect=0;fontColor=#232F3E;gradientColor=none;fillColor=#232F3D;strokeColor=none;dashed=0;verticalLabelPosition=bottom;verticalAlign=top;align=center;html=1;fontSize=12;fontStyle=0;aspect=fixed;pointerEvents=1;shape=mxgraph.aws4.gear;" vertex="1" parent="mBwvCVkKNd0OoQQ3ES0A-120">
          <mxGeometry x="13" y="10" width="20" height="20" as="geometry" />
        </mxCell>
        <mxCell id="mBwvCVkKNd0OoQQ3ES0A-124" value="" style="endArrow=classic;html=1;rounded=0;entryX=-0.003;entryY=0.346;entryDx=0;entryDy=0;entryPerimeter=0;" edge="1" parent="1" target="mBwvCVkKNd0OoQQ3ES0A-121">
          <mxGeometry width="50" height="50" relative="1" as="geometry">
            <mxPoint x="2590" y="280" as="sourcePoint" />
            <mxPoint x="2540" y="290" as="targetPoint" />
          </mxGeometry>
        </mxCell>
        <mxCell id="mBwvCVkKNd0OoQQ3ES0A-125" value="Debulking completed" style="text;html=1;align=center;verticalAlign=middle;whiteSpace=wrap;rounded=0;" vertex="1" parent="1">
          <mxGeometry x="2600" y="237" width="70" height="32.5" as="geometry" />
        </mxCell>
        <mxCell id="mBwvCVkKNd0OoQQ3ES0A-126" value="" style="endArrow=none;html=1;rounded=0;exitX=0.5;exitY=1;exitDx=0;exitDy=0;" edge="1" parent="1" source="mBwvCVkKNd0OoQQ3ES0A-121">
          <mxGeometry width="50" height="50" relative="1" as="geometry">
            <mxPoint x="2740" y="350" as="sourcePoint" />
            <mxPoint x="2560" y="400" as="targetPoint" />
            <Array as="points">
              <mxPoint x="2740" y="400" />
            </Array>
          </mxGeometry>
        </mxCell>
        <mxCell id="mBwvCVkKNd0OoQQ3ES0A-127" value="Positive FSN" style="text;html=1;align=center;verticalAlign=middle;whiteSpace=wrap;rounded=0;" vertex="1" parent="1">
          <mxGeometry x="2740" y="352" width="70" height="32.5" as="geometry" />
        </mxCell>
        <mxCell id="mBwvCVkKNd0OoQQ3ES0A-128" value="" style="group" vertex="1" connectable="0" parent="1">
          <mxGeometry x="2280" y="490" width="110" height="70" as="geometry" />
        </mxCell>
        <mxCell id="mBwvCVkKNd0OoQQ3ES0A-129" value="" style="rounded=1;whiteSpace=wrap;html=1;" vertex="1" parent="mBwvCVkKNd0OoQQ3ES0A-128">
          <mxGeometry y="-3" width="110" height="70" as="geometry" />
        </mxCell>
        <mxCell id="mBwvCVkKNd0OoQQ3ES0A-130" value="Cleanup Transient Data" style="text;html=1;align=center;verticalAlign=middle;whiteSpace=wrap;rounded=0;" vertex="1" parent="mBwvCVkKNd0OoQQ3ES0A-128">
          <mxGeometry x="10.083333333333332" y="23.294117647058822" width="91.66666666666666" height="24.705882352941174" as="geometry" />
        </mxCell>
        <mxCell id="mBwvCVkKNd0OoQQ3ES0A-131" value="" style="sketch=0;outlineConnect=0;fontColor=#232F3E;gradientColor=none;fillColor=#232F3D;strokeColor=none;dashed=0;verticalLabelPosition=bottom;verticalAlign=top;align=center;html=1;fontSize=12;fontStyle=0;aspect=fixed;pointerEvents=1;shape=mxgraph.aws4.gear;" vertex="1" parent="mBwvCVkKNd0OoQQ3ES0A-128">
          <mxGeometry x="11.916666666666666" y="8.235294117647058" width="16.470588235294116" height="16.470588235294116" as="geometry" />
        </mxCell>
        <mxCell id="mBwvCVkKNd0OoQQ3ES0A-132" value="" style="endArrow=classic;html=1;rounded=0;exitX=1;exitY=0.5;exitDx=0;exitDy=0;entryX=0;entryY=0.5;entryDx=0;entryDy=0;" edge="1" parent="1" source="mBwvCVkKNd0OoQQ3ES0A-82" target="mBwvCVkKNd0OoQQ3ES0A-129">
          <mxGeometry width="50" height="50" relative="1" as="geometry">
            <mxPoint x="2420" y="350" as="sourcePoint" />
            <mxPoint x="2470" y="300" as="targetPoint" />
          </mxGeometry>
        </mxCell>
        <mxCell id="mBwvCVkKNd0OoQQ3ES0A-133" value="" style="endArrow=classic;html=1;rounded=0;" edge="1" parent="1">
          <mxGeometry width="50" height="50" relative="1" as="geometry">
            <mxPoint x="2390" y="520" as="sourcePoint" />
            <mxPoint x="2480" y="520" as="targetPoint" />
          </mxGeometry>
        </mxCell>
        <mxCell id="mBwvCVkKNd0OoQQ3ES0A-134" value="" style="ellipse;html=1;shape=endState;fillColor=#000000;strokeColor=#ff0000;" vertex="1" parent="1">
          <mxGeometry x="2480" y="505" width="30" height="30" as="geometry" />
        </mxCell>
      </root>
    </mxGraphModel>
  </diagram>
</mxfile>
